<svg width="20" height="20" viewBox="0 0 20 20" id="crashItem" xmlns="http://www.w3.org/2000/svg">
<path d="M18.75 4.375V8.125C18.75 8.29076 18.6842 8.44973 18.567 8.56694C18.4497 8.68415 18.2908 8.75 18.125 8.75C17.9592 8.75 17.8003 8.68415 17.6831 8.56694C17.5659 8.44973 17.5 8.29076 17.5 8.125V5.88375L12.3169 11.0675C12.1996 11.1845 12.0407 11.2501 11.875 11.25H7.13376L2.31689 16.0669C2.19901 16.1807 2.04113 16.2437 1.87726 16.2423C1.71339 16.2409 1.55663 16.1751 1.44075 16.0593C1.32487 15.9434 1.25914 15.7866 1.25771 15.6228C1.25629 15.4589 1.31929 15.301 1.43314 15.1831L6.43314 10.1831C6.55032 10.0659 6.70926 10 6.87501 10H11.6156L16.6156 5H14.375C14.2092 5 14.0503 4.93415 13.9331 4.81694C13.8159 4.69973 13.75 4.54076 13.75 4.375C13.75 4.20924 13.8159 4.05027 13.9331 3.93306C14.0503 3.81585 14.2092 3.75 14.375 3.75H18.125C18.2908 3.75 18.4497 3.81585 18.567 3.93306C18.6842 4.05027 18.75 4.20924 18.75 4.375Z" fill="white"/>
</svg>
