<svg width="20" height="20" viewBox="0 0 20 20" fill="none" xmlns="http://www.w3.org/2000/svg">
<g clip-path="url(#clip0_4_116)">
<path d="M17.252 4.08262L16.3298 3.16039C15.567 2.39719 14.3252 2.39762 13.5629 3.16039L13.2555 3.46777L12.3331 2.54535C12.0784 2.29063 11.6656 2.29063 11.4109 2.54535L9.66967 4.28656C8.82205 3.92789 7.90233 3.7393 6.95288 3.7393C5.09253 3.7393 3.34574 4.46172 2.03398 5.77351C-0.678319 8.48581 -0.678319 12.8992 2.03398 15.6115C3.34577 16.9233 5.09253 17.6457 6.95288 17.6457C8.81322 17.6457 10.5602 16.9233 11.872 15.6115C13.1838 14.2997 13.9062 12.553 13.9062 10.6926C13.9062 9.74315 13.7176 8.82343 13.359 7.97577L15.1002 6.23457C15.3549 5.98003 15.3549 5.56691 15.1002 5.31234L14.1777 4.38992L14.4851 4.08254C14.7393 3.8284 15.153 3.82801 15.4075 4.08254L16.3298 5.00476C16.4572 5.13215 16.624 5.19586 16.7909 5.19586C16.9577 5.19586 17.1246 5.13215 17.252 5.00476C17.5067 4.75027 17.5067 4.33711 17.252 4.08262ZM10.9498 14.6893C9.88428 15.7546 8.46487 16.3414 6.95288 16.3414C5.44089 16.3414 4.02171 15.7546 2.9562 14.6893C0.752537 12.4855 0.752537 8.8996 2.9562 6.69574C4.02171 5.63043 5.44089 5.04367 6.95288 5.04367C7.83495 5.04367 8.68534 5.24371 9.45252 5.62164C9.47104 5.63355 9.4899 5.64504 9.50975 5.65507C9.97787 5.89265 10.4054 6.18886 10.7837 6.53671L10.7988 6.55085C10.85 6.59824 10.9004 6.64648 10.9497 6.69578C10.9989 6.74517 11.0473 6.79548 11.0946 6.84667C11.0993 6.85171 11.1041 6.85679 11.1088 6.86191C11.4566 7.24015 11.7529 7.66769 11.9904 8.13581C12.0004 8.15569 12.0119 8.17452 12.0238 8.19304C12.4018 8.96022 12.6018 9.81065 12.6018 10.6927C12.6019 12.2046 12.0151 13.6238 10.9498 14.6893ZM12.7079 6.78245C12.4925 6.46637 12.2516 6.1685 11.9874 5.89183C11.9114 5.81204 11.8334 5.73409 11.7536 5.65804C11.477 5.39394 11.1791 5.15297 10.863 4.93758L11.8719 3.92867L13.7168 5.77355L12.7079 6.78245ZM19.8086 6.53249L19.3739 6.09773C19.1195 5.843 18.7064 5.843 18.4516 6.09773C18.1969 6.35226 18.1969 6.76519 18.4516 7.01995L18.8864 7.45472C18.9469 7.51538 19.0188 7.56349 19.0979 7.59628C19.177 7.62908 19.2618 7.64591 19.3475 7.64581C19.4332 7.64591 19.518 7.62908 19.5971 7.59629C19.6763 7.56349 19.7481 7.51538 19.8086 7.45472C20.0634 7.20019 20.0634 6.78726 19.8086 6.53249Z" fill="white"/>
<path d="M17.2003 6.09775C16.9455 5.84298 16.5324 5.84298 16.2781 6.09775L15.8433 6.53251C15.5886 6.78724 15.5886 7.20017 15.8433 7.45474C15.9707 7.58212 16.1376 7.64583 16.3044 7.64583C16.4712 7.64583 16.6382 7.58212 16.7655 7.45474L17.2003 7.01997C17.455 6.76521 17.455 6.35232 17.2003 6.09775ZM19.809 3.48904C19.7485 3.42838 19.6767 3.38026 19.5975 3.34747C19.5184 3.31468 19.4335 3.29784 19.3479 3.29794C19.2622 3.29784 19.1774 3.31467 19.0983 3.34747C19.0191 3.38026 18.9473 3.42837 18.8868 3.48904L18.452 3.9238C18.1973 4.17853 18.1973 4.59146 18.452 4.84603C18.7067 5.10076 19.1199 5.10076 19.3742 4.84603L19.809 4.41126C20.0637 4.15654 20.0637 3.74361 19.809 3.48904ZM10.0298 12.8403C9.77502 12.5855 9.36233 12.5855 9.10756 12.8403C8.53206 13.4158 7.76795 13.7327 6.95655 13.7327C6.14514 13.7327 5.38112 13.4158 4.80553 12.8403C4.55081 12.5856 4.13807 12.5856 3.88331 12.8403C3.62858 13.0948 3.62858 13.5079 3.88331 13.7625C4.7051 14.5845 5.79651 15.0371 6.95651 15.0371C8.11651 15.0371 9.20792 14.5845 10.0297 13.7625C10.2845 13.5079 10.2845 13.0948 10.0298 12.8403Z" fill="white"/>
</g>
<defs>
<clipPath id="clip0_4_116">
<rect width="20" height="20" fill="white"/>
</clipPath>
</defs>
</svg>
