<svg width="20" height="20" viewBox="0 0 20 20" fill="none" xmlns="http://www.w3.org/2000/svg">
<g clip-path="url(#clip0_4_120)">
<path d="M14.8082 1.6038H12.7082L11.006 0.377905C10.4093 -0.0532668 9.56709 0.0693503 9.12365 0.682319L8.46095 1.6038H5.19197C4.44916 1.6038 3.8447 2.2081 3.8447 2.95091V8.01576L0.887516 12.1218C0.452438 12.7235 0.588727 13.5678 1.19162 14.0041L3.8447 15.9142V17.0491C3.8447 17.7919 4.44916 18.3962 5.19197 18.3962H7.29255L8.99408 19.6216C9.60732 20.0649 10.4451 19.9134 10.8764 19.3172L11.5387 18.3962H14.8082C15.551 18.3962 16.1555 17.7919 16.1555 17.0491V11.9835L19.1125 7.87775C19.5476 7.27603 19.4113 6.43173 18.8084 5.99544L16.1555 4.08544V2.95091C16.1555 2.2081 15.551 1.6038 14.8082 1.6038ZM3.8447 15.3391L1.46474 13.6255C1.07052 13.3404 0.981227 12.7885 1.26576 12.3952C1.26576 12.3951 1.26591 12.3949 1.26591 12.3949L3.8447 8.81427V15.3391ZM9.5022 0.955288C9.78517 0.563921 10.3326 0.466811 10.7328 0.756304L11.9097 1.6038H9.03588L9.5022 0.955288ZM10.4978 19.0442C10.2122 19.4394 9.66408 19.5302 9.2672 19.2432L8.09099 18.3962H10.9639L10.4978 19.0442ZM15.6888 17.0491C15.6888 17.5346 15.2937 17.9295 14.8082 17.9295C13.5562 17.9288 5.32123 17.9295 5.19197 17.9295C4.70646 17.9295 4.31134 17.5346 4.31134 17.0491C4.31134 17.0803 4.31216 16.8576 4.31134 2.95095C4.31134 2.46544 4.70646 2.07048 5.19197 2.07048H14.8082C15.2937 2.07048 15.6888 2.46544 15.6888 2.95095C15.6887 4.09458 15.6873 14.8226 15.6888 17.0491ZM18.5353 6.374C18.9295 6.65912 19.0188 7.21103 18.7343 7.60431C18.7343 7.60447 18.7341 7.60462 18.7341 7.60462L16.1555 11.185V4.66056L18.5353 6.374Z" fill="white"/>
<path d="M13.3174 9.19178C13.5775 7.25549 11.3811 6.0601 9.99727 7.3956C8.63075 6.05994 6.42208 7.2501 6.68278 9.19221C6.93192 11.0201 8.8522 12.505 9.66595 13.0584C9.86626 13.1952 10.1289 13.1983 10.334 13.0586C11.1479 12.505 13.0682 11.0201 13.3174 9.19221L13.3174 9.19178ZM12.855 9.12947C12.6247 10.8175 10.6663 12.2682 10.0714 12.6727C10.0266 12.7035 9.97313 12.7033 9.9286 12.6727C9.33372 12.2682 7.37532 10.8173 7.1452 9.12974C6.94309 7.62076 8.62489 6.70709 9.67403 7.73205C9.85997 7.90752 10.1402 7.90767 10.3292 7.72916C11.3778 6.70412 13.0562 7.62779 12.855 9.12947ZM7.08946 5.22088C7.12079 5.22089 7.1518 5.21454 7.18059 5.20221C7.2088 5.19024 7.23436 5.17282 7.25583 5.15096C7.2773 5.1291 7.29424 5.10323 7.3057 5.07481C7.31716 5.0464 7.3229 5.016 7.3226 4.98537C7.3223 4.95473 7.31597 4.92445 7.30395 4.89627L6.48548 2.97267C6.41227 2.80041 6.12942 2.80041 6.05618 2.97267L5.23786 4.89627C5.22587 4.92446 5.21954 4.95473 5.21925 4.98536C5.21896 5.01599 5.2247 5.04638 5.23616 5.07479C5.24761 5.1032 5.26455 5.12908 5.28601 5.15094C5.30747 5.1728 5.33303 5.19022 5.36122 5.20221C5.38939 5.21432 5.41968 5.22074 5.45035 5.22109C5.48101 5.22145 5.51144 5.21572 5.53988 5.20426C5.56833 5.19279 5.59422 5.1758 5.61606 5.15428C5.6379 5.13275 5.65527 5.10712 5.66716 5.07885L5.88302 4.57146H6.65872L6.87466 5.07885C6.89254 5.12101 6.92245 5.15697 6.96066 5.18223C6.99886 5.20749 7.04366 5.22094 7.08946 5.22088ZM6.08153 4.10482L6.27083 3.6599L6.46017 4.10482H6.08153ZM14.639 14.7978C14.5205 14.7469 14.3833 14.8028 14.3331 14.9212L14.1171 15.4285H13.3414L13.1256 14.9212C13.0753 14.8025 12.9384 14.7466 12.8196 14.7978C12.7914 14.8098 12.7659 14.8272 12.7444 14.8491C12.723 14.8709 12.706 14.8968 12.6946 14.9252C12.6831 14.9536 12.6774 14.984 12.6776 15.0146C12.6779 15.0453 12.6843 15.0755 12.6963 15.1037L13.5146 17.0274C13.5325 17.0695 13.5624 17.1054 13.6005 17.1307C13.6387 17.1559 13.6835 17.1694 13.7292 17.1694C13.775 17.1694 13.8198 17.1559 13.8579 17.1307C13.8961 17.1054 13.926 17.0695 13.9439 17.0274L14.7624 15.1037C14.7744 15.0755 14.7807 15.0453 14.781 15.0146C14.7813 14.984 14.7756 14.9536 14.7641 14.9252C14.7526 14.8968 14.7357 14.8709 14.7142 14.849C14.6928 14.8272 14.6672 14.8098 14.639 14.7978ZM13.7292 16.3401L13.5399 15.8952H13.9186L13.7292 16.3401Z" fill="white"/>
</g>
<defs>
<clipPath id="clip0_4_120">
<rect width="20" height="20" fill="white"/>
</clipPath>
</defs>
</svg>
