<svg width="20" height="20" viewBox="0 0 20 20" fill="none" xmlns="http://www.w3.org/2000/svg">
<g clip-path="url(#clip0_4_124)">
<path d="M10 0.0326538C4.48598 0.0326538 0 4.51863 0 10.0327C0.502734 23.2808 19.4993 23.2772 20 10.0325C20 4.51863 15.514 0.0326538 10 0.0326538ZM16.7395 15.7279L15.6761 15.1139C16.3725 14.3364 16.9134 13.3995 17.2386 12.4076L18.3061 13.0239C17.9461 14.0204 17.4114 14.934 16.7395 15.7279ZM17.1665 11.0128C16.835 10.8121 16.3748 11.0157 16.3009 11.3962C16.1596 12.0479 15.9177 12.6734 15.5818 13.2553C15.2459 13.8371 14.8251 14.3594 14.3313 14.8076C14.263 14.8696 14.2102 14.9469 14.1774 15.0331C14.1446 15.1193 14.1326 15.2121 14.1425 15.3039C14.1523 15.3956 14.1836 15.4837 14.234 15.5611C14.2843 15.6384 14.3522 15.7028 14.4321 15.7489L15.8982 16.5953C14.9926 17.4101 13.9181 18.0402 12.7344 18.4268V16.7291C12.7425 16.3418 12.3361 16.0449 11.9696 16.1712C10.704 16.5798 9.29609 16.5798 8.03047 16.1712C7.66473 16.0449 7.25699 16.3419 7.26566 16.7291V18.4268C6.08195 18.0402 5.00746 17.4101 4.10188 16.5954L5.56793 15.749C5.90738 15.5623 5.96125 15.0619 5.66871 14.8077C4.68199 13.9159 3.97805 12.6966 3.69914 11.3962C3.62559 11.0164 3.16449 10.8117 2.83352 11.0128L1.36301 11.8619C1.10938 10.6885 1.10938 9.37679 1.36301 8.20347L2.83352 9.0525C3.16223 9.25383 3.62758 9.04777 3.69914 8.66914C3.97809 7.36871 4.68195 6.14949 5.66875 5.25777C5.9609 5.00422 5.90766 4.5025 5.56793 4.31644L4.10191 3.47004C5.00742 2.65523 6.08187 2.02508 7.26562 1.63855V3.33621C7.25758 3.72347 7.66402 4.02043 8.03043 3.89414C9.29605 3.48551 10.7039 3.48547 11.9695 3.89414C12.0281 3.91289 12.0884 3.92211 12.1484 3.92211C12.4613 3.92886 12.7414 3.65093 12.7344 3.33617V1.63851C13.9181 2.02508 14.9926 2.65523 15.8982 3.46992L14.4321 4.31633C14.0927 4.50304 14.0387 5.00336 14.3313 5.25765C15.3181 6.14949 16.022 7.36855 16.3009 8.66906C16.3723 9.0473 16.838 9.25418 17.1665 9.05242L18.6371 8.20343C18.8907 9.37679 18.8907 10.6885 18.6371 11.8619L17.1665 11.0128ZM1.69395 13.0239L2.76137 12.4076C3.08656 13.3996 3.62742 14.3364 4.32387 15.114L3.26047 15.7279C2.58855 14.934 2.05395 14.0204 1.69395 13.0239ZM3.26051 4.33734L4.32387 4.95129C3.62738 5.7289 3.08656 6.6657 2.76137 7.65765L1.69395 7.0414C2.05395 6.04484 2.58855 5.13129 3.26051 4.33734ZM18.3061 7.04136L17.2386 7.65765C16.9134 6.6657 16.3726 5.72894 15.6761 4.95129L16.7395 4.33734C17.4114 5.13129 17.9461 6.04484 18.3061 7.04136ZM11.5625 1.34301V2.57636C10.5409 2.36199 9.45914 2.36199 8.4375 2.57636V1.34301C9.44664 1.15898 10.5533 1.15898 11.5625 1.34301ZM8.4375 18.7223V17.4889C9.45914 17.7033 10.5409 17.7033 11.5625 17.4889V18.7223C10.5533 18.9063 9.44664 18.9063 8.4375 18.7223Z" fill="white"/>
<path d="M10 4.64198C7.02758 4.64198 4.60938 7.06023 4.60938 10.0326C4.88039 17.1742 15.1207 17.1723 15.3907 10.0325C15.3906 7.06023 12.9724 4.64198 10 4.64198ZM10 14.2514C7.67375 14.2514 5.78125 12.3589 5.78125 10.0326C5.99336 4.44358 14.0075 4.44511 14.2188 10.0327C14.2188 12.3589 12.3263 14.2514 10 14.2514Z" fill="white"/>
</g>
<defs>
<clipPath id="clip0_4_124">
<rect width="20" height="20" fill="white"/>
</clipPath>
</defs>
</svg>
