<svg width="20" height="20" viewBox="0 0 20 20" fill="none" xmlns="http://www.w3.org/2000/svg">
<g clip-path="url(#clip0_4_128)">
<path d="M17.5 7.5H10C9.33696 7.5 8.70108 7.76339 8.23224 8.23223C7.7634 8.70107 7.5 9.33696 7.5 10V20H20V10C20 9.33696 19.7366 8.70107 19.2678 8.23223C18.7989 7.76339 18.163 7.5 17.5 7.5ZM18.3333 18.3333H9.16667V10C9.16667 9.77899 9.25447 9.56702 9.41075 9.41074C9.56703 9.25446 9.77899 9.16667 10 9.16667H17.5C17.721 9.16667 17.933 9.25446 18.0893 9.41074C18.2455 9.56702 18.3333 9.77899 18.3333 10V18.3333ZM12.5 11.6667C12.5 11.8315 12.4511 11.9926 12.3596 12.1296C12.268 12.2667 12.1378 12.3735 11.9856 12.4366C11.8333 12.4996 11.6657 12.5161 11.5041 12.484C11.3424 12.4518 11.194 12.3725 11.0774 12.2559C10.9609 12.1394 10.8815 11.9909 10.8494 11.8292C10.8172 11.6676 10.8337 11.5 10.8968 11.3478C10.9598 11.1955 11.0667 11.0653 11.2037 10.9738C11.3407 10.8822 11.5019 10.8333 11.6667 10.8333C11.8877 10.8333 12.0996 10.9211 12.2559 11.0774C12.4122 11.2337 12.5 11.4457 12.5 11.6667ZM16.6667 15.8333C16.6667 15.9982 16.6178 16.1593 16.5262 16.2963C16.4347 16.4333 16.3045 16.5402 16.1522 16.6032C16 16.6663 15.8324 16.6828 15.6708 16.6507C15.5091 16.6185 15.3606 16.5391 15.2441 16.4226C15.1275 16.306 15.0482 16.1576 15.016 15.9959C14.9839 15.8343 15.0004 15.6667 15.0634 15.5144C15.1265 15.3622 15.2333 15.232 15.3704 15.1404C15.5074 15.0489 15.6685 15 15.8333 15C16.0544 15 16.2663 15.0878 16.4226 15.2441C16.5789 15.4004 16.6667 15.6123 16.6667 15.8333ZM7.21417 5.58917C7.0976 5.47263 7.01821 5.32415 6.98604 5.16249C6.95386 5.00083 6.97035 4.83326 7.03341 4.68098C7.09648 4.52869 7.20329 4.39853 7.34034 4.30695C7.47738 4.21537 7.63851 4.16649 7.80334 4.16649C7.96817 4.16649 8.12929 4.21537 8.26634 4.30695C8.40339 4.39853 8.5102 4.52869 8.57326 4.68098C8.63633 4.83326 8.65281 5.00083 8.62064 5.16249C8.58847 5.32415 8.50907 5.47263 8.3925 5.58917C8.23623 5.74539 8.02431 5.83316 7.80334 5.83316C7.58237 5.83316 7.37044 5.74539 7.21417 5.58917ZM5.58917 7.21417C5.70574 7.3307 5.78513 7.47919 5.81731 7.64084C5.84948 7.8025 5.83299 7.97007 5.76993 8.12236C5.70686 8.27464 5.60005 8.40481 5.46301 8.49639C5.32596 8.58796 5.16483 8.63684 5.00001 8.63684C4.83518 8.63684 4.67405 8.58796 4.537 8.49639C4.39996 8.40481 4.29315 8.27464 4.23008 8.12236C4.16702 7.97007 4.15053 7.8025 4.1827 7.64084C4.21488 7.47919 4.29427 7.3307 4.41084 7.21417C4.56711 7.05794 4.77904 6.97018 5.00001 6.97018C5.22098 6.97018 5.4329 7.05794 5.58917 7.21417ZM1.91084 8.3925L5.83334 12.3158V14.6725L0.732505 9.57083C0.500314 9.33868 0.316127 9.06306 0.190464 8.75972C0.0648005 8.45638 0.00012207 8.13126 0.00012207 7.80292C0.00012207 7.47458 0.0648005 7.14945 0.190464 6.84611C0.316127 6.54277 0.500314 6.26715 0.732505 6.035L6.03584 0.7325C6.50466 0.263823 7.14043 0.000534058 7.80334 0.000534058C8.46625 0.000534058 9.10202 0.263823 9.57084 0.7325L14.6717 5.83333H12.315L8.3925 1.91083C8.23623 1.75461 8.02431 1.66684 7.80334 1.66684C7.58237 1.66684 7.37044 1.75461 7.21417 1.91083L1.91084 7.21417C1.75461 7.37044 1.66685 7.58236 1.66685 7.80333C1.66685 8.0243 1.75461 8.23623 1.91084 8.3925Z" fill="white"/>
</g>
<defs>
<clipPath id="clip0_4_128">
<rect width="20" height="20" fill="white"/>
</clipPath>
</defs>
</svg>
