<svg width="20" height="20" viewBox="0 0 20 20" fill="none" xmlns="http://www.w3.org/2000/svg">
<g clip-path="url(#clip0_10_308)">
<path d="M12.5176 1.13531C12.365 0.982812 12.1177 0.982812 11.9651 1.13531L9.73175 3.36867C9.57925 3.52121 9.57925 3.76855 9.73179 3.92113C9.80808 3.99738 9.90804 4.03555 10.008 4.03555C10.108 4.03555 10.2079 3.99738 10.2842 3.92113L12.5176 1.68777C12.6701 1.53523 12.6701 1.28789 12.5176 1.13531ZM16.0005 0.114688C15.848 -0.0378125 15.6007 -0.0378125 15.4481 0.114688L8.18929 7.37355C8.03672 7.52609 8.03672 7.77344 8.18929 7.92598C8.22553 7.9623 8.26858 7.9911 8.31599 8.01074C8.36339 8.03037 8.4142 8.04045 8.4655 8.04039C8.51681 8.04045 8.56762 8.03037 8.61502 8.01074C8.66242 7.9911 8.70548 7.9623 8.74172 7.92598L16.0005 0.667148C16.1531 0.514609 16.1531 0.267266 16.0005 0.114688ZM19.8856 0.114375C19.733 -0.038125 19.4857 -0.038125 19.3331 0.114375L14.5797 4.86781C14.4272 5.02035 14.4272 5.2677 14.5797 5.42027C14.656 5.49652 14.756 5.53469 14.8559 5.53469C14.9559 5.53469 15.0559 5.49652 15.1321 5.42027L19.8856 0.666836C20.0381 0.514297 20.0381 0.266953 19.8856 0.114375ZM14.0683 5.93164C13.9957 5.85902 13.8949 5.81719 13.7922 5.81719C13.6894 5.81719 13.5887 5.85898 13.516 5.93164C13.4434 6.0043 13.4016 6.10473 13.4016 6.20781C13.4016 6.31055 13.4433 6.41133 13.516 6.48398C13.5887 6.5566 13.6894 6.59844 13.7922 6.59844C13.8949 6.59844 13.9957 6.5566 14.0683 6.48398C14.1413 6.41057 14.1824 6.31134 14.1828 6.20781C14.1828 6.10469 14.141 6.0043 14.0683 5.93164ZM19.8793 8.64297C19.8062 8.57027 19.7059 8.52891 19.6031 8.52891C19.5004 8.52891 19.3996 8.57031 19.3269 8.64297C19.2539 8.71633 19.2127 8.81559 19.2125 8.91914C19.2125 9.02227 19.2539 9.12266 19.3269 9.1957C19.4003 9.26873 19.4996 9.30986 19.6031 9.31016C19.7059 9.31016 19.8066 9.26836 19.8793 9.1957C19.9522 9.12208 19.9931 9.02273 19.9934 8.91914C19.9934 8.81641 19.9519 8.71602 19.8793 8.64297Z" fill="white"/>
<path d="M18.9319 9.59043C18.7793 9.43789 18.5321 9.43789 18.3795 9.59043L10.4018 17.5681C8.20453 19.7654 4.62922 19.7655 2.43188 17.5681C0.23457 15.3708 0.23457 11.7955 2.43188 9.5982L11.3536 0.67648C11.5061 0.52394 11.5061 0.276597 11.3536 0.124019C11.201 -0.0284814 10.9537 -0.0284814 10.8011 0.124019L1.87941 9.04574C0.667461 10.2577 0 11.8691 0 13.5831C0 15.2971 0.6675 16.9085 1.87945 18.1205C3.09145 19.3325 4.70285 20 6.41684 20C8.13082 20 9.74227 19.3325 10.9542 18.1206L18.9319 10.1429C19.0845 9.99035 19.0845 9.743 18.9319 9.59043Z" fill="white"/>
<path d="M6.41669 8.73956C3.74583 8.73956 1.57294 10.9125 1.57294 13.5833C1.57294 16.2542 3.74583 18.4271 6.41669 18.4271C9.08755 18.4271 11.2604 16.2542 11.2604 13.5833C11.2604 10.9125 9.08755 8.73956 6.41669 8.73956ZM6.02536 17.6269C5.35716 17.5627 4.73575 17.336 4.20118 16.9869C4.24536 16.477 4.67419 16.0755 5.19532 16.0755C5.74571 16.0755 6.19348 16.5233 6.19348 17.0737C6.19318 17.2706 6.13469 17.4631 6.02536 17.6269ZM6.88903 17.6182C6.94571 17.4422 6.97462 17.2585 6.97473 17.0737C6.97473 16.0925 6.17649 15.2943 5.19532 15.2943C4.4368 15.2943 3.78802 15.7715 3.53243 16.4413C2.8045 15.7068 2.35419 14.6967 2.35419 13.5833C2.35419 12.4049 2.85872 11.3422 3.6629 10.5995C4.01583 10.631 4.29352 10.928 4.29352 11.2891C4.29352 11.671 3.98278 11.9818 3.60083 11.9818C3.38512 11.9818 3.2102 12.1567 3.2102 12.3724C3.2102 12.5881 3.38512 12.763 3.60083 12.763C4.4136 12.763 5.07477 12.1018 5.07477 11.2891C5.07477 10.7729 4.8079 10.3182 4.40512 10.0548C4.99856 9.71519 5.68536 9.52085 6.41673 9.52085C8.65673 9.52081 10.4792 11.3433 10.4792 13.5833C10.4792 15.6636 8.90735 17.3834 6.88903 17.6182Z" fill="white"/>
<path d="M7.9728 11.3281C7.14948 11.3281 6.47971 11.9979 6.47971 12.8213C6.47971 13.6446 7.14952 14.3143 7.9728 14.3143C8.79608 14.3143 9.46593 13.6445 9.46593 12.8212C9.46593 11.9979 8.79612 11.3281 7.9728 11.3281ZM7.9728 13.5331C7.5803 13.5331 7.26096 13.2138 7.26096 12.8213C7.26096 12.4287 7.58034 12.1094 7.9728 12.1094C8.36534 12.1094 8.68468 12.4287 8.68468 12.8213C8.68468 13.2138 8.36534 13.5331 7.9728 13.5331ZM8.24882 15.4086C8.17554 15.3356 8.07642 15.2945 7.973 15.2941C7.86987 15.2941 7.76909 15.3359 7.69643 15.4086C7.62356 15.4821 7.58257 15.5813 7.58237 15.6848C7.58237 15.7875 7.62382 15.8883 7.69643 15.9609C7.76994 16.034 7.86933 16.0751 7.973 16.0754C8.07534 16.0754 8.17612 16.034 8.24882 15.9609C8.32196 15.8876 8.36311 15.7883 8.36327 15.6848C8.36327 15.582 8.32147 15.4812 8.24882 15.4086ZM4.77147 14.0625C4.69821 13.9895 4.59911 13.9484 4.49569 13.948C4.39257 13.948 4.29218 13.9898 4.21913 14.0625C4.14614 14.1359 4.10501 14.2351 4.10468 14.3386C4.10468 14.4414 4.14643 14.5422 4.21913 14.6148C4.29218 14.6879 4.39257 14.7293 4.49569 14.7293C4.59922 14.729 4.69844 14.6878 4.77164 14.6146C4.84485 14.5414 4.88608 14.4422 4.88632 14.3386C4.88632 14.2359 4.84452 14.1351 4.77147 14.0625ZM15.7824 7.88622C15.6298 7.73372 15.3826 7.73372 15.2299 7.88622L12.4565 10.6597C12.304 10.8122 12.304 11.0596 12.4566 11.2121C12.5328 11.2884 12.6328 11.3265 12.7328 11.3265C12.8327 11.3265 12.9327 11.2884 13.009 11.2121L15.7824 8.43868C15.9349 8.28614 15.9349 8.0388 15.7824 7.88622ZM19.8492 3.8195C19.6966 3.66704 19.4494 3.667 19.2967 3.8195L16.7827 6.33348C16.6302 6.48602 16.6302 6.73337 16.7827 6.88594C16.819 6.92227 16.862 6.95107 16.9094 6.97071C16.9568 6.99034 17.0076 7.00042 17.0589 7.00036C17.1102 7.00042 17.1611 6.99034 17.2085 6.97071C17.2559 6.95107 17.2989 6.92227 17.3351 6.88594L19.8492 4.37196C20.0017 4.21942 20.0017 3.97208 19.8492 3.8195Z" fill="white"/>
</g>
<defs>
<clipPath id="clip0_10_308">
<rect width="20" height="20" fill="white"/>
</clipPath>
</defs>
</svg>
